<svg width="18" height="25" viewBox="0 0 18 25" fill="none" xmlns="http://www.w3.org/2000/svg">
<path opacity="0.2" d="M17 2V24L9 19L1 24V2C1 1.73478 1.10536 1.48043 1.29289 1.29289C1.48043 1.10536 1.73478 1 2 1H16C16.2652 1 16.5196 1.10536 16.7071 1.29289C16.8946 1.48043 17 1.73478 17 2Z" fill="#ABB1BB"/>
<path d="M16 0H2C1.46957 0 0.960859 0.210714 0.585786 0.585786C0.210714 0.960859 0 1.46957 0 2V24C8.87966e-05 24.1785 0.0479345 24.3537 0.138572 24.5074C0.22921 24.6611 0.359337 24.7878 0.51545 24.8743C0.671562 24.9607 0.847972 25.0039 1.02637 24.9992C1.20477 24.9944 1.37866 24.9421 1.53 24.8475L9 20.1787L16.4713 24.8475C16.6226 24.9418 16.7963 24.9939 16.9745 24.9984C17.1528 25.0029 17.3289 24.9598 17.4849 24.8733C17.6408 24.7869 17.7707 24.6603 17.8613 24.5068C17.9519 24.3532 17.9998 24.1783 18 24V2C18 1.46957 17.7893 0.960859 17.4142 0.585786C17.0391 0.210714 16.5304 0 16 0ZM16 22.1963L9.52875 18.1525C9.36982 18.0532 9.18617 18.0005 8.99875 18.0005C8.81133 18.0005 8.62768 18.0532 8.46875 18.1525L2 22.1963V2H16V22.1963Z" fill="#384D6C"/>
</svg>
