<svg width="23" height="35" viewBox="0 0 23 35" fill="none" xmlns="http://www.w3.org/2000/svg">
<path d="M6.625 6.39591C6.625 6.16938 6.7106 5.95212 6.86298 5.79193C7.01535 5.63174 7.22201 5.54175 7.4375 5.54175H15.5625C15.778 5.54175 15.9847 5.63174 16.137 5.79193C16.2894 5.95212 16.375 6.16938 16.375 6.39591C16.375 6.62245 16.2894 6.83971 16.137 6.9999C15.9847 7.16009 15.778 7.25008 15.5625 7.25008H7.4375C7.22201 7.25008 7.01535 7.16009 6.86298 6.9999C6.7106 6.83971 6.625 6.62245 6.625 6.39591ZM4.1875 10.6667C3.97201 10.6667 3.76535 10.7567 3.61298 10.9169C3.4606 11.0771 3.375 11.2944 3.375 11.5209C3.375 11.7475 3.4606 11.9647 3.61298 12.1249C3.76535 12.2851 3.97201 12.3751 4.1875 12.3751H18.8125C19.028 12.3751 19.2347 12.2851 19.387 12.1249C19.5394 11.9647 19.625 11.7475 19.625 11.5209C19.625 11.2944 19.5394 11.0771 19.387 10.9169C19.2347 10.7567 19.028 10.6667 18.8125 10.6667H4.1875ZM3.375 14.9376C3.375 14.711 3.4606 14.4938 3.61298 14.3336C3.76535 14.1734 3.97201 14.0834 4.1875 14.0834H18.8125C19.028 14.0834 19.2347 14.1734 19.387 14.3336C19.5394 14.4938 19.625 14.711 19.625 14.9376C19.625 15.1641 19.5394 15.3814 19.387 15.5416C19.2347 15.7018 19.028 15.7917 18.8125 15.7917H4.1875C3.97201 15.7917 3.76535 15.7018 3.61298 15.5416C3.4606 15.3814 3.375 15.1641 3.375 14.9376ZM4.1875 17.5001C3.97201 17.5001 3.76535 17.5901 3.61298 17.7503C3.4606 17.9104 3.375 18.1277 3.375 18.3542C3.375 18.5808 3.4606 18.798 3.61298 18.9582C3.76535 19.1184 3.97201 19.2084 4.1875 19.2084H18.8125C19.028 19.2084 19.2347 19.1184 19.387 18.9582C19.5394 18.798 19.625 18.5808 19.625 18.3542C19.625 18.1277 19.5394 17.9104 19.387 17.7503C19.2347 17.5901 19.028 17.5001 18.8125 17.5001H4.1875Z" fill="#ABB1BB"/>
<path fill-rule="evenodd" clip-rule="evenodd" d="M22.875 27.7501C22.875 28.6562 22.5326 29.5253 21.9231 30.166C21.3136 30.8068 20.487 31.1667 19.625 31.1667H17.1875V34.5834L14.75 33.3022L12.3125 34.5834V31.1667H3.375C2.51305 31.1667 1.6864 30.8068 1.0769 30.166C0.46741 29.5253 0.125 28.6562 0.125 27.7501V3.83341C0.125 2.92726 0.46741 2.05822 1.0769 1.41747C1.6864 0.776717 2.51305 0.416748 3.375 0.416748H19.625C20.487 0.416748 21.3136 0.776717 21.9231 1.41747C22.5326 2.05822 22.875 2.92726 22.875 3.83341V27.7501ZM3.375 2.12508C2.94402 2.12508 2.5307 2.30507 2.22595 2.62544C1.92121 2.94582 1.75 3.38034 1.75 3.83341V27.7501C1.75 28.2032 1.92121 28.6377 2.22595 28.9581C2.5307 29.2784 2.94402 29.4584 3.375 29.4584H12.3125V27.4477C11.8988 26.9546 11.6292 26.3464 11.5362 25.6962C11.4431 25.046 11.5305 24.3813 11.7878 23.782C12.0452 23.1828 12.4615 22.6742 12.9869 22.3176C13.5124 21.9609 14.1245 21.7711 14.75 21.7711C15.3755 21.7711 15.9876 21.9609 16.513 22.3176C17.0385 22.6742 17.4548 23.1828 17.7122 23.782C17.9695 24.3813 18.0569 25.046 17.9638 25.6962C17.8708 26.3464 17.6012 26.9546 17.1875 27.4477V29.4584H19.625C20.056 29.4584 20.4693 29.2784 20.774 28.9581C21.0788 28.6377 21.25 28.2032 21.25 27.7501V3.83341C21.25 3.38034 21.0788 2.94582 20.774 2.62544C20.4693 2.30507 20.056 2.12508 19.625 2.12508H3.375ZM15.5625 28.4966C15.0295 28.6409 14.4705 28.6409 13.9375 28.4966V31.8193L14.75 31.3922L15.5625 31.8193V28.4966ZM14.75 26.8959C15.181 26.8959 15.5943 26.7159 15.899 26.3956C16.2038 26.0752 16.375 25.6407 16.375 25.1876C16.375 24.7345 16.2038 24.3 15.899 23.9796C15.5943 23.6592 15.181 23.4792 14.75 23.4792C14.319 23.4792 13.9057 23.6592 13.601 23.9796C13.2962 24.3 13.125 24.7345 13.125 25.1876C13.125 25.6407 13.2962 26.0752 13.601 26.3956C13.9057 26.7159 14.319 26.8959 14.75 26.8959Z" fill="#ABB1BB"/>
</svg>
