<svg width="39" height="37" viewBox="0 0 39 37" fill="none" xmlns="http://www.w3.org/2000/svg">
<path fill-rule="evenodd" clip-rule="evenodd" d="M34.8643 8.34963C35.0187 8.57194 35.0875 8.838 35.0591 9.10287C35.0307 9.36773 34.9068 9.61518 34.7083 9.80342L19.7697 23.9744C19.6169 24.1193 19.4262 24.2231 19.2172 24.275L12.9951 25.8167C12.7894 25.8676 12.5733 25.8666 12.3681 25.8137C12.163 25.7609 11.976 25.6581 11.8257 25.5155C11.6754 25.3729 11.567 25.1955 11.5113 25.0009C11.4556 24.8063 11.4546 24.6012 11.5082 24.4061L13.1332 18.5046C13.1806 18.3274 13.2701 18.1629 13.3948 18.0236L28.3887 3.80788C28.6172 3.59135 28.927 3.46973 29.25 3.46973C29.5729 3.46973 29.8827 3.59135 30.1112 3.80788L34.7083 8.16771C34.7666 8.22322 34.8189 8.28416 34.8643 8.34963ZM32.123 8.98479L29.25 6.26067L15.4082 19.3926L14.3926 23.0818L18.2812 22.1182L32.123 8.98479Z" fill="#384D6C"/>
<path d="M31.9165 26.455C32.3607 22.8536 32.5025 19.2244 32.3407 15.6017C32.3371 15.5163 32.3522 15.4312 32.3849 15.3516C32.4176 15.272 32.4673 15.1997 32.5308 15.1392L34.1298 13.6222C34.1735 13.5805 34.2289 13.5516 34.2895 13.5391C34.35 13.5266 34.4131 13.531 34.4711 13.5516C34.5291 13.5723 34.5796 13.6085 34.6165 13.6557C34.6534 13.7029 34.6751 13.7593 34.679 13.8179C34.98 18.1211 34.8658 22.4413 34.3378 26.7248C33.9543 29.842 31.3153 32.2856 28.0442 32.6324C22.3653 33.2291 16.6345 33.2291 10.9557 32.6324C7.68616 32.2856 5.04553 29.842 4.66203 26.7248C3.98831 21.2602 3.98831 15.7398 4.66203 10.2752C5.04553 7.15795 7.68453 4.7144 10.9557 4.36753C15.2658 3.9141 19.6083 3.80425 23.9378 4.03915C23.9997 4.04337 24.0591 4.06435 24.1089 4.09961C24.1587 4.13486 24.1968 4.18291 24.2187 4.23806C24.2406 4.29322 24.2453 4.35317 24.2324 4.41081C24.2195 4.46846 24.1894 4.52138 24.1458 4.56332L22.5322 6.09265C22.469 6.15239 22.3935 6.19922 22.3105 6.23024C22.2275 6.26126 22.1387 6.27582 22.0495 6.27303C18.4368 6.15652 14.8198 6.2879 11.227 6.66615C10.1772 6.7764 9.19717 7.21919 8.44528 7.923C7.6934 8.62681 7.21356 9.55055 7.08328 10.545C6.43174 15.8303 6.43174 21.1697 7.08328 26.455C7.21356 27.4494 7.6934 28.3732 8.44528 29.077C9.19717 29.7808 10.1772 30.2236 11.227 30.3338C16.6789 30.9119 22.3209 30.9119 27.7744 30.3338C28.8242 30.2236 29.8043 29.7808 30.5562 29.077C31.308 28.3732 31.7862 27.4494 31.9165 26.455Z" fill="#384D6C"/>
</svg>
