<svg width="41" height="29" viewBox="0 0 41 29" fill="none" xmlns="http://www.w3.org/2000/svg">
<path d="M9.04938 12.5939L3 9.70642L20.0679 2L38 9.70642L32.3827 12.2584M9.04938 12.5939L20.0679 17.8532L28.9259 13.8289M9.04938 12.5939V19.8349L20.0679 25.1193L32.3827 19.8349V12.2584M32.3827 12.2584L28.9259 13.8289M28.9259 13.8289V26" stroke="#ABB1BB" stroke-width="2"/>
<path d="M31 27C31 28.1046 30.1046 29 29 29C27.8954 29 27 28.1046 27 27C27 25.8954 27.8954 25 29 25C30.1046 25 31 25.8954 31 27ZM28.3382 27C28.3382 27.3655 28.6345 27.6618 29 27.6618C29.3655 27.6618 29.6618 27.3655 29.6618 27C29.6618 26.6345 29.3655 26.3382 29 26.3382C28.6345 26.3382 28.3382 26.6345 28.3382 27Z" fill="#ABB1BB"/>
<path d="M21.188 10.709C20.647 10.3861 20.6413 9.60453 21.1775 9.27385C21.4495 9.10616 21.793 9.1074 22.0637 9.27703L28.8226 13.5123C29.3291 13.8296 29.2814 14.5823 28.7389 14.8332C28.5133 14.9376 28.2507 14.9238 28.0372 14.7964L21.188 10.709Z" fill="#ABB1BB"/>
</svg>
