<svg width="20" height="21" viewBox="0 0 20 21" fill="none" xmlns="http://www.w3.org/2000/svg">
<path d="M9.68611 18.966H4.23877C2.75837 18.966 1.5572 17.8574 1.5572 16.5V4.42687C1.5572 3.06548 2.7628 1.96088 4.23877 1.96088H9.77476C10.1072 1.96088 10.3731 1.71632 10.3731 1.41061C10.3731 1.10491 10.1072 0.860352 9.77476 0.860352H4.23877C2.09795 0.860352 0.360474 2.46223 0.360474 4.42687V16.5C0.360474 18.4688 2.10238 20.0666 4.23877 20.0666H9.68611C10.0185 20.0666 10.2845 19.822 10.2845 19.5163C10.2845 19.2106 10.0141 18.966 9.68611 18.966Z" fill="#384D6C"/>
<path d="M19.5436 10.0762L15.7407 6.57901C15.5058 6.36298 15.129 6.36298 14.8941 6.57901C14.6592 6.79504 14.6592 7.14151 14.8941 7.35753L17.6776 9.91728H5.53745C5.20503 9.91728 4.93909 10.1618 4.93909 10.4675C4.93909 10.7732 5.20503 11.0178 5.53745 11.0178H17.6776L14.8941 13.5775C14.6592 13.7936 14.6592 14.14 14.8941 14.3561C15.0094 14.462 15.1645 14.5191 15.3152 14.5191C15.4659 14.5191 15.621 14.4661 15.7363 14.3561L19.5392 10.8588C19.7785 10.6387 19.7785 10.2882 19.5436 10.0762Z" fill="#384D6C"/>
</svg>
