<svg width="30" height="28" viewBox="0 0 30 28" fill="none" xmlns="http://www.w3.org/2000/svg">
<path d="M27.8571 16H17.1429V26C17.1429 26.5304 16.9171 27.0391 16.5152 27.4142C16.1134 27.7893 15.5683 28 15 28C14.4317 28 13.8866 27.7893 13.4848 27.4142C13.0829 27.0391 12.8571 26.5304 12.8571 26V16H2.14286C1.57454 16 1.02949 15.7893 0.627629 15.4142C0.225765 15.0391 0 14.5304 0 14C0 13.4696 0.225765 12.9609 0.627629 12.5858C1.02949 12.2107 1.57454 12 2.14286 12H12.8571V2C12.8571 1.46957 13.0829 0.960859 13.4848 0.585786C13.8866 0.210713 14.4317 0 15 0C15.5683 0 16.1134 0.210713 16.5152 0.585786C16.9171 0.960859 17.1429 1.46957 17.1429 2V12H27.8571C28.4255 12 28.9705 12.2107 29.3724 12.5858C29.7742 12.9609 30 13.4696 30 14C30 14.5304 29.7742 15.0391 29.3724 15.4142C28.9705 15.7893 28.4255 16 27.8571 16Z" fill="#384D6C"/>
</svg>
