<svg width="24" height="24" viewBox="0 0 24 24" fill="none" xmlns="http://www.w3.org/2000/svg">
<path d="M9.78235 2.50413H14.2177C14.7426 2.50413 15.1681 2.92966 15.1681 3.45456V5.67224H8.83192V3.45456C8.83192 2.92966 9.25744 2.50413 9.78235 2.50413ZM6.93106 3.45456V5.67224H4.71338C2.43877 5.67224 0.594849 7.51616 0.594849 9.79077V11.6916C0.594849 12.9164 1.58773 13.9093 2.81252 13.9093H9.46554V13.2757C9.46554 12.5758 10.0329 12.0084 10.7328 12.0084H13.2673C13.9672 12.0084 14.5345 12.5758 14.5345 13.2757V13.9093H21.1875C22.4123 13.9093 23.4052 12.9164 23.4052 11.6916V9.79077C23.4052 7.51616 21.5612 5.67224 19.2867 5.67224H17.069V3.45456C17.069 1.87984 15.7924 0.603271 14.2177 0.603271H9.78235C8.20762 0.603271 6.93106 1.87984 6.93106 3.45456ZM23.4052 15.1627C22.7651 15.5726 22.004 15.8102 21.1875 15.8102H14.5345C14.5345 16.5101 13.9672 17.0774 13.2673 17.0774H10.7328C10.0329 17.0774 9.46554 16.5101 9.46554 15.8102H2.81252C1.99601 15.8102 1.235 15.5726 0.594849 15.1627V19.2951C0.594849 21.5697 2.43877 23.4136 4.71338 23.4136H19.2867C21.5612 23.4136 23.4052 21.5697 23.4052 19.2951V15.1627Z" fill="#384D6C"/>
</svg>
