<svg width="29" height="29" viewBox="0 0 29 29" fill="none" xmlns="http://www.w3.org/2000/svg">
<path d="M4.89764 23.3086C4.66554 23.3086 4.44305 23.2164 4.27888 23.0524C4.11482 22.8882 4.02264 22.6657 4.02264 22.4336V6.68359C4.02264 6.45149 4.11482 6.229 4.27888 6.06483C4.44305 5.90077 4.66554 5.80859 4.89764 5.80859H10.1476V23.3086H4.89764Z" fill="#F5F5F5"/>
<path d="M9.27264 5.80859V23.3086C9.27264 23.7918 9.66439 24.1836 10.1476 24.1836C10.6309 24.1836 11.0226 23.7918 11.0226 23.3086V5.80859C11.0226 5.32534 10.6309 4.93359 10.1476 4.93359C9.66439 4.93359 9.27264 5.32534 9.27264 5.80859Z" fill="#384D6C"/>
<path fill-rule="evenodd" clip-rule="evenodd" d="M3.14764 6.68359C3.14764 6.68359 3.14764 5.95872 3.66021 5.44616C3.66021 5.44616 4.17277 4.93359 4.89764 4.93359H24.1476C24.1476 4.93359 24.8725 4.93359 25.3851 5.44616C25.3851 5.44616 25.8976 5.95872 25.8976 6.68359V22.4336C25.8976 22.4336 25.8976 23.1585 25.3851 23.671C25.3851 23.671 24.8725 24.1836 24.1476 24.1836H4.89764C4.89764 24.1836 4.17277 24.1836 3.66021 23.671C3.66021 23.671 3.14764 23.1585 3.14764 22.4336V6.68359ZM4.89764 6.68359V22.4336H24.1476V6.68359H4.89764Z" fill="#384D6C"/>
<path d="M4.02264 10.1836H6.64764C7.13089 10.1836 7.52264 9.79184 7.52264 9.30859C7.52264 8.82534 7.13089 8.43359 6.64764 8.43359H4.02264C3.53939 8.43359 3.14764 8.82534 3.14764 9.30859C3.14764 9.79184 3.53939 10.1836 4.02264 10.1836Z" fill="#384D6C"/>
<path d="M4.02264 13.6836H6.64764C7.13089 13.6836 7.52264 13.2918 7.52264 12.8086C7.52264 12.3253 7.13089 11.9336 6.64764 11.9336H4.02264C3.53939 11.9336 3.14764 12.3253 3.14764 12.8086C3.14764 13.2918 3.53939 13.6836 4.02264 13.6836Z" fill="#384D6C"/>
<path d="M4.02264 17.1836H6.64764C7.13089 17.1836 7.52264 16.7918 7.52264 16.3086C7.52264 15.8253 7.13089 15.4336 6.64764 15.4336H4.02264C3.53939 15.4336 3.14764 15.8253 3.14764 16.3086C3.14764 16.7918 3.53939 17.1836 4.02264 17.1836Z" fill="#384D6C"/>
</svg>
