<svg width="29" height="29" viewBox="0 0 29 29" fill="none" xmlns="http://www.w3.org/2000/svg">
<path d="M25.6582 11.7119V7.33691C25.6582 6.85366 25.2665 6.46191 24.7832 6.46191C24.3 6.46191 23.9082 6.85366 23.9082 7.33691V10.8369H20.4082C19.925 10.8369 19.5332 11.2287 19.5332 11.7119C19.5332 12.1952 19.925 12.5869 20.4082 12.5869H24.7832C25.2665 12.5869 25.6582 12.1952 25.6582 11.7119Z" fill="#384D6C"/>
<path d="M24.1648 12.3306L24.1654 12.3312C24.3294 12.4948 24.5516 12.5866 24.7832 12.5866L24.7845 12.5866C25.0166 12.5863 25.239 12.4937 25.4029 12.3294C25.5664 12.1654 25.6582 11.9432 25.6582 11.7116L25.6582 11.7103C25.6579 11.4782 25.5654 11.2558 25.401 11.092L25.4008 11.0917L21.6823 7.38415C19.4317 5.13175 16.3074 4.50929 16.3074 4.50929C13.1831 3.88683 10.2396 5.10535 10.2396 5.10535C7.29613 6.32388 5.52596 8.97253 5.52596 8.97253C3.7558 11.6212 3.7558 14.8069 3.7558 14.8069C3.7558 17.9926 5.52596 20.6413 5.52596 20.6413C7.29612 23.2899 10.2396 24.5085 10.2396 24.5085C13.1831 25.727 16.3074 25.1045 16.3074 25.1045C19.4314 24.4821 21.6831 22.2289 21.6831 22.2289L21.6834 22.2285C21.8474 22.0644 21.9395 21.842 21.9395 21.61V21.6097C21.9394 21.3776 21.8471 21.1551 21.6829 20.9911C21.5189 20.8271 21.2964 20.735 21.0645 20.735H21.0641C20.8321 20.7351 20.6095 20.8274 20.4455 20.9916C18.5691 22.8695 15.9655 23.3883 15.9655 23.3883C13.3619 23.907 10.909 22.8915 10.909 22.8915C8.45607 21.8761 6.98093 19.6689 6.98093 19.6689C5.5058 17.4617 5.5058 14.8069 5.5058 14.8069C5.5058 12.1521 6.98093 9.94493 6.98093 9.94493C8.45607 7.73771 10.909 6.72228 10.909 6.72228C13.3619 5.70684 15.9655 6.22556 15.9655 6.22556C18.5691 6.74428 20.4467 8.62341 20.4467 8.62341L24.1648 12.3306Z" fill="#384D6C"/>
</svg>
