<svg width="8" height="13" viewBox="0 0 8 13" fill="none" xmlns="http://www.w3.org/2000/svg">
<mask id="path-1-inside-1_204_298" fill="white">
<path d="M4.9956 6.93652L0.364314 11.4733C0.0226049 11.808 0.0226049 12.3507 0.364314 12.6855C0.706022 13.0202 1.26004 13.0202 1.60175 12.6855L6.85175 7.54261C7.19346 7.20788 7.19346 6.66517 6.85175 6.33043L1.60175 1.18757C1.26004 0.852839 0.706022 0.852839 0.364314 1.18757C0.0226049 1.52231 0.0226049 2.06502 0.364314 2.39976L4.9956 6.93652Z"/>
</mask>
<path d="M4.9956 6.93652L0.364314 11.4733C0.0226049 11.808 0.0226049 12.3507 0.364314 12.6855C0.706022 13.0202 1.26004 13.0202 1.60175 12.6855L6.85175 7.54261C7.19346 7.20788 7.19346 6.66517 6.85175 6.33043L1.60175 1.18757C1.26004 0.852839 0.706022 0.852839 0.364314 1.18757C0.0226049 1.52231 0.0226049 2.06502 0.364314 2.39976L4.9956 6.93652Z" fill="#384D6C"/>
<path d="M4.9956 6.93652L12.6932 14.7945L20.7148 6.93652L12.6932 -0.921421L4.9956 6.93652ZM0.364314 11.4733L-7.33326 3.61535L0.364314 11.4733ZM1.60175 12.6855L9.29933 20.5434H9.29933L1.60175 12.6855ZM6.85175 7.54261L-0.845828 -0.31533L6.85175 7.54261ZM6.85175 6.33043L-0.845828 14.1884L-0.845828 14.1884L6.85175 6.33043ZM1.60175 1.18757L9.29933 -6.67037H9.29933L1.60175 1.18757ZM0.364314 2.39976L8.06189 -5.45819H8.06189L0.364314 2.39976ZM-2.70198 -0.921421L-7.33326 3.61534L8.06189 19.3312L12.6932 14.7945L-2.70198 -0.921421ZM-7.33326 3.61535C-12.0782 8.26345 -12.0782 15.8953 -7.33326 20.5434L8.06189 4.82753C12.1234 8.80616 12.1234 15.3526 8.06189 19.3312L-7.33326 3.61535ZM-7.33326 20.5434C-2.71487 25.0676 4.68093 25.0676 9.29933 20.5434L-6.09583 4.82753C-2.16085 0.972856 4.12691 0.972856 8.06189 4.82753L-7.33326 20.5434ZM9.29933 20.5434L14.5493 15.4006L-0.845828 -0.31533L-6.09583 4.82753L9.29933 20.5434ZM14.5493 15.4006C19.2943 10.7525 19.2943 3.12059 14.5493 -1.52751L-0.845828 14.1884C-4.90735 10.2097 -4.90735 3.6633 -0.845828 -0.31533L14.5493 15.4006ZM14.5493 -1.52751L9.29933 -6.67037L-6.09583 9.04552L-0.845828 14.1884L14.5493 -1.52751ZM9.29933 -6.67037C4.68093 -11.1945 -2.71487 -11.1945 -7.33326 -6.67037L8.06189 9.04552C4.12691 12.9002 -2.16085 12.9002 -6.09583 9.04552L9.29933 -6.67037ZM-7.33326 -6.67037C-12.0782 -2.02227 -12.0782 5.6096 -7.33326 10.2577L8.06189 -5.45819C12.1234 -1.47956 12.1234 5.06689 8.06189 9.04552L-7.33326 -6.67037ZM-7.33326 10.2577L-2.70198 14.7945L12.6932 -0.921421L8.06189 -5.45819L-7.33326 10.2577Z" fill="#384D6C" mask="url(#path-1-inside-1_204_298)"/>
</svg>
