<svg width="29" height="29" viewBox="0 0 29 29" fill="none" xmlns="http://www.w3.org/2000/svg">
<path fill-rule="evenodd" clip-rule="evenodd" d="M14.2614 10.8696C14.2614 10.8696 16.436 10.8696 17.9737 12.4073C17.9737 12.4073 19.5114 13.945 19.5114 16.1196C19.5114 16.1196 19.5114 18.2942 17.9737 19.8319C17.9737 19.8319 16.436 21.3696 14.2614 21.3696C14.2614 21.3696 12.0867 21.3696 10.549 19.8319C10.549 19.8319 9.01135 18.2943 9.01135 16.1196C9.01135 16.1196 9.01135 13.945 10.549 12.4073C10.549 12.4073 12.0867 10.8696 14.2614 10.8696ZM14.2614 12.6196C14.2614 12.6196 12.8116 12.6196 11.7865 13.6448C11.7865 13.6448 10.7614 14.6699 10.7614 16.1196C10.7614 16.1196 10.7614 17.5694 11.7865 18.5945C11.7865 18.5945 12.8116 19.6196 14.2614 19.6196C14.2614 19.6196 15.7111 19.6196 16.7362 18.5945C16.7362 18.5945 17.7614 17.5694 17.7614 16.1196C17.7614 16.1196 17.7614 14.6699 16.7362 13.6448C16.7362 13.6448 15.7111 12.6196 14.2614 12.6196Z" fill="#384D6C"/>
<path d="M26.2477 16.6431L26.248 16.6435C26.3869 16.8294 26.594 16.9524 26.8237 16.9856C26.8651 16.9916 26.907 16.9946 26.9489 16.9946L26.9504 16.9946C27.1387 16.9943 27.3219 16.9332 27.4727 16.8205C27.6937 16.6553 27.8238 16.3956 27.8239 16.1196L27.8238 16.1096C27.8217 15.9242 27.7607 15.7443 27.6497 15.5958L27.649 15.5948C26.5972 14.1881 25.0262 13.4025 25.0262 13.4025C23.4545 12.6167 21.6974 12.6196 21.6974 12.6196L21.6989 12.6196C22.1821 12.6196 22.5739 13.0114 22.5739 13.4946C22.5739 13.9771 22.1833 14.3686 21.7008 14.3696L26.2477 16.6431Z" fill="#384D6C"/>
<path d="M4.27916 14.9678C5.47991 14.3674 6.82239 14.3696 6.82239 14.3696L6.82362 14.3696H6.82385C6.83738 14.3696 6.85091 14.3693 6.86442 14.3687C7.08172 14.3586 7.28746 14.2679 7.44153 14.1144C7.6059 13.9506 7.69846 13.7282 7.69885 13.4961L7.69885 13.4949V13.4946C7.69885 13.4417 7.69405 13.3889 7.68451 13.3369C7.60844 12.9219 7.24716 12.6203 6.82532 12.6196L6.82385 12.6196C5.06752 12.617 3.49654 13.4025 3.49654 13.4025C1.92546 14.1881 0.873721 15.5948 0.873721 15.5948L0.873089 15.5957C0.759934 15.7471 0.698853 15.9308 0.698853 16.1196L0.698901 16.1288C0.699307 16.1676 0.702299 16.2064 0.707855 16.2448C0.741058 16.4745 0.86414 16.6816 1.05002 16.8205C1.20127 16.9336 1.38503 16.9946 1.57385 16.9946C1.58555 16.9946 1.59725 16.9944 1.60894 16.9939C1.87233 16.9834 2.11692 16.8546 2.27473 16.6435C3.07842 15.5681 4.27916 14.9678 4.27916 14.9678Z" fill="#384D6C"/>
<path d="M17.5117 22.3042C19.0027 23.2354 19.7743 24.8146 19.7743 24.8146L19.7748 24.8156L19.7751 24.8162C19.9218 25.1167 20.227 25.3073 20.5614 25.3073L20.5853 25.3069C20.7102 25.3035 20.833 25.2734 20.9453 25.2185C21.2458 25.0718 21.4364 24.7667 21.4364 24.4323L21.436 24.4083C21.4326 24.2834 21.4025 24.1606 21.3476 24.0483L21.3473 24.0476C20.3555 22.017 18.4388 20.8199 18.4388 20.8199C16.5217 19.6226 14.2614 19.6226 14.2614 19.6226C12.0011 19.6226 10.084 20.8199 10.084 20.8199C8.16719 22.017 7.17543 24.0476 7.17543 24.0476L7.17513 24.0483C7.11671 24.1679 7.08636 24.2992 7.08636 24.4323L7.08644 24.4436C7.08765 24.5366 7.10367 24.6288 7.13391 24.7168C7.20936 24.9362 7.3689 25.1167 7.57743 25.2185C7.697 25.2769 7.82831 25.3073 7.96136 25.3073L7.98146 25.307C8.30853 25.2995 8.60409 25.1102 8.74764 24.8162C9.51931 23.2358 11.011 22.3042 11.011 22.3042C12.5027 21.3726 14.2614 21.3726 14.2614 21.3726C16.0201 21.3726 17.5117 22.3042 17.5117 22.3042Z" fill="#384D6C"/>
<path d="M8.73345 8.19734C9.25574 8.75326 9.39877 9.50253 9.39877 9.50253C9.44228 9.73048 9.57456 9.9318 9.76651 10.0622C9.91156 10.1608 10.0829 10.2135 10.2582 10.2135L10.2639 10.2134C10.3171 10.2131 10.3701 10.2079 10.4223 10.1979C10.8348 10.1192 11.1332 9.75845 11.1332 9.33846L11.1332 9.33353C11.1329 9.28013 11.1277 9.22686 11.1177 9.1744C10.8794 7.92563 10.0089 6.99908 10.0089 6.99908C9.13837 6.07253 7.90688 5.75679 7.90688 5.75679C6.67539 5.44105 5.46647 5.83446 5.46647 5.83446C4.25756 6.22787 3.44774 7.2079 3.44774 7.2079C2.63793 8.18793 2.47945 9.44933 2.47945 9.44933C2.32097 10.7107 2.86318 11.8606 2.86318 11.8606C3.40539 13.0105 4.47942 13.6908 4.47942 13.6908C5.55307 14.3708 6.82387 14.3697 6.82387 14.3697L6.82476 14.3697C7.05683 14.3695 7.27929 14.2771 7.44322 14.1128C7.60693 13.9488 7.69887 13.7265 7.69887 13.4947V13.4938C7.69838 13.0109 7.30678 12.6197 6.82387 12.6197L6.82298 12.6197C6.06019 12.6205 5.41578 12.2123 5.41578 12.2123C4.77136 11.8042 4.44604 11.1143 4.44604 11.1143C4.12071 10.4243 4.2158 9.66749 4.2158 9.66749C4.31089 8.91064 4.79677 8.32263 4.79677 8.32263C5.28266 7.73461 6.00801 7.49856 6.00801 7.49856C6.73336 7.26252 7.47226 7.45196 7.47226 7.45196C8.21115 7.6414 8.73345 8.19734 8.73345 8.19734Z" fill="#384D6C"/>
<path d="M23.1069 12.2123C22.4625 12.6205 21.6997 12.6197 21.6997 12.6197L21.6988 12.6197C21.6851 12.6197 21.6714 12.62 21.6577 12.6207L20.8248 13.5359C20.835 13.7531 20.9258 13.9588 21.0795 14.1128C21.2434 14.2771 21.4659 14.3695 21.698 14.3697L21.6988 14.3697C22.9696 14.3708 24.0433 13.6908 24.0433 13.6908C25.1173 13.0105 25.6595 11.8606 25.6595 11.8606C26.2017 10.7107 26.0433 9.44933 26.0433 9.44933C25.8848 8.18793 25.075 7.2079 25.075 7.2079C24.2652 6.22787 23.0562 5.83446 23.0562 5.83446C21.8473 5.44105 20.6158 5.75679 20.6158 5.75679C19.3843 6.07253 18.5139 6.99908 18.5139 6.99908C17.6434 7.92563 17.405 9.1744 17.405 9.1744C17.3947 9.22848 17.3895 9.28341 17.3895 9.33846C17.3895 9.36476 17.3907 9.39104 17.393 9.41723C17.4282 9.80616 17.7168 10.1247 18.1004 10.1979C18.1545 10.2083 18.2094 10.2135 18.2645 10.2135C18.2908 10.2135 18.317 10.2123 18.3432 10.2099C18.7322 10.1748 19.0507 9.88612 19.1239 9.50253C19.267 8.75326 19.7893 8.19733 19.7893 8.19733C20.3116 7.6414 21.0505 7.45196 21.0505 7.45196C21.7893 7.26252 22.5147 7.49856 22.5147 7.49856C23.24 7.73461 23.7259 8.32263 23.7259 8.32263C24.2118 8.91064 24.3069 9.66749 24.3069 9.66749C24.402 10.4243 24.0767 11.1143 24.0767 11.1143C23.7513 11.8042 23.1069 12.2123 23.1069 12.2123Z" fill="#384D6C"/>
</svg>
