<svg width="815" height="1063" viewBox="0 0 815 1063" fill="none" xmlns="http://www.w3.org/2000/svg">
<rect x="0.206055" y="0.368629" width="814.264" height="1061.94" rx="52" fill="#FEF0A5"/>
<g opacity="0.5">
<rect x="96.2061" y="118.369" width="623" height="34" rx="9" fill="#BBDAF6"/>
<rect x="96.2061" y="179.369" width="623" height="34" rx="9" fill="#BBDAF6"/>
<rect x="96.2061" y="240.369" width="623" height="34" rx="9" fill="#BBDAF6"/>
<rect x="96.2061" y="301.369" width="623" height="34" rx="9" fill="#BBDAF6"/>
<rect x="96.2061" y="362.369" width="623" height="34" rx="9" fill="#BBDAF6"/>
<rect x="96.2061" y="423.369" width="623" height="34" rx="9" fill="#BBDAF6"/>
<rect x="96.2061" y="484.369" width="623" height="34" rx="9" fill="#BBDAF6"/>
<rect x="96.2061" y="545.369" width="623" height="34" rx="9" fill="#BBDAF6"/>
<rect x="96.2061" y="606.369" width="623" height="34" rx="9" fill="#BBDAF6"/>
<rect x="96.2061" y="667.369" width="623" height="34" rx="9" fill="#BBDAF6"/>
<rect x="96.2061" y="728.369" width="623" height="34" rx="9" fill="#BBDAF6"/>
<rect x="96.2061" y="789.369" width="623" height="34" rx="9" fill="#BBDAF6"/>
<rect x="96.2061" y="850.369" width="623" height="34" rx="9" fill="#BBDAF6"/>
<rect x="96.2061" y="911.369" width="623" height="34" rx="9" fill="#BBDAF6"/>
</g>
</svg>
